<?xml version="1.0" encoding="UTF-8"?>
<svg width="16px" height="16px" viewBox="0 0 16 16" version="1.1" xmlns="http://www.w3.org/2000/svg" xmlns:xlink="http://www.w3.org/1999/xlink">
    <!-- Generator: Sketch 61.2 (89653) - https://sketch.com -->
    <title>Favicon Export/safari-pinned-tab</title>
    <desc>Created with Sketch.</desc>
    <g id="Favicon" stroke="none" stroke-width="1" fill="none" fill-rule="evenodd">
        <g id="Safari-Pinned-Tab" transform="translate(-150.000000, -424.000000)" fill="#f00">
            <g id="Useless-Layers" transform="translate(149.000000, 150.000000)">
                <g id="Export" transform="translate(1.000000, 274.000000)">
                    <path d="M5.02293475,5.09375 L5.02293475,6.57630815 L3.40266531,6.57630815 L3.40266531,10.8781285 L1.62026945,10.8781285 L1.62026945,6.57630815 L8.8817842e-16,6.57630815 L8.8817842e-16,5.09375 L5.02293475,5.09375 Z M10.1699211,5.09375 L10.1699211,6.57393427 L7.0751567,6.57630815 L7.0751567,7.28632236 L10.1699211,7.28632236 L10.1699211,8.66732107 L7.0751567,8.66517265 L7.0751567,9.39562341 L10.1699211,9.39562341 L10.1699211,10.8781285 L5.29281389,10.8781285 L5.29281389,5.09375 L10.1699211,5.09375 Z M13.3913894,5.09375 C15.3194537,5.09375 16,6.51956059 16,7.97787603 C16,9.75208931 15.0603432,10.8781285 13.0429337,10.8781285 L10.4667616,10.8781285 L10.4667616,5.09375 L13.3913894,5.09375 Z M12.8161556,6.57630815 L12.2491044,6.57630815 L12.2491044,9.39562341 L12.9457374,9.39562341 C14.0557032,9.39562341 14.2177235,8.496349 14.2177235,7.9536068 C14.2177235,7.58902463 14.1042682,6.57630815 12.8161556,6.57630815 Z" id="Safari-Pinned-Tab"></path>
                </g>
            </g>
        </g>
    </g>
</svg>
