<?xml version="1.0" standalone="no"?>
<!DOCTYPE svg PUBLIC "-//W3C//DTD SVG 20010904//EN"
 "http://www.w3.org/TR/2001/REC-SVG-20010904/DTD/svg10.dtd">
<svg version="1.0" xmlns="http://www.w3.org/2000/svg"
 width="857.000000pt" height="258.000000pt" viewBox="0 0 857.000000 258.000000"
 preserveAspectRatio="xMidYMid meet">
<metadata>
Created by potrace 1.16, written by Peter Selinger 2001-2019
</metadata>
<g transform="translate(0.000000,258.000000) scale(0.100000,-0.100000)"
fill="#f00" stroke="none">
<path d="M45 2507 c-3 -7 -4 -147 -3 -312 l3 -300 347 -3 348 -2 0 -925 0
-925 380 0 380 0 2 923 3 922 347 3 348 2 0 315 0 315 -1075 0 c-856 0 -1077
-3 -1080 -13z"/>
<path d="M2325 2507 c-3 -6 -4 -563 -3 -1237 l3 -1225 1043 -3 1042 -2 0 315
0 315 -660 0 -660 0 -5 23 c-4 13 -5 82 -3 153 l3 129 663 3 662 2 0 300 0
300 -662 2 -663 3 0 150 0 150 663 3 662 2 0 315 0 315 -1040 0 c-823 0 -1042
-3 -1045 -13z"/>
<path d="M4550 1280 l0 -1241 683 4 c651 4 687 5 781 25 376 81 631 264 770
553 57 118 62 132 90 239 38 150 49 269 44 483 -4 161 -10 211 -33 312 -105
462 -356 732 -780 838 -76 20 -118 21 -817 24 l-738 4 0 -1241z m1220 584
c258 -78 390 -275 390 -579 -1 -180 -33 -300 -113 -416 -48 -70 -99 -112 -184
-150 -83 -38 -187 -50 -393 -47 l-155 3 -3 595 c-1 327 0 601 3 609 8 21 378
9 455 -15z"/>
<path d="M7040 2513 c0 -5 41 -66 89 -138 49 -71 117 -170 151 -220 34 -49
106 -155 160 -234 54 -80 96 -149 93 -155 -7 -12 -260 -388 -401 -596 -47 -69
-91 -132 -99 -141 -32 -37 -22 -39 255 -39 244 0 270 2 284 18 8 9 46 71 84
137 106 186 135 228 146 217 5 -5 58 -90 117 -188 l106 -179 273 -3 c294 -3
294 -3 254 49 -11 13 -86 123 -168 244 -81 121 -181 267 -221 325 -41 58 -81
119 -90 137 -19 37 -34 7 144 268 168 246 267 390 305 445 l38 55 -267 3
c-147 1 -273 0 -280 -2 -6 -3 -39 -53 -73 -113 -117 -206 -141 -244 -150 -238
-5 3 -53 84 -106 180 l-98 175 -273 0 c-150 0 -273 -3 -273 -7z"/>
</g>
</svg>
